<?xml version="1.0" standalone="no"?>
<!DOCTYPE svg PUBLIC "-//W3C//DTD SVG 20010904//EN"
 "http://www.w3.org/TR/2001/REC-SVG-20010904/DTD/svg10.dtd">
<svg version="1.0" xmlns="http://www.w3.org/2000/svg"
 width="523.000000pt" height="523.000000pt" viewBox="0 0 523.000000 523.000000"
 preserveAspectRatio="xMidYMid meet">
<metadata>
Created by potrace 1.14, written by Peter Selinger 2001-2017
</metadata>
<g transform="translate(0.000000,523.000000) scale(0.100000,-0.100000)"
fill="#000000" stroke="none">
<path d="M2497 5184 c-1 -1 -47 -5 -102 -8 -55 -4 -109 -9 -120 -11 -11 -2
-42 -7 -70 -11 -27 -4 -57 -7 -65 -9 -121 -16 -366 -87 -523 -151 -102 -42
-313 -147 -367 -184 -14 -9 -61 -41 -105 -70 -206 -137 -420 -337 -593 -556
-53 -66 -193 -285 -239 -374 -91 -175 -198 -454 -218 -570 -3 -18 -8 -36 -10
-40 -2 -4 -7 -22 -10 -41 -9 -56 -26 -152 -31 -179 -13 -74 -19 -186 -19 -365
0 -230 12 -366 46 -515 6 -25 13 -56 15 -68 27 -139 107 -361 195 -537 43 -88
87 -173 97 -190 285 -481 737 -866 1262 -1075 173 -69 435 -138 585 -155 33
-4 69 -9 80 -12 54 -12 449 -11 565 2 185 21 422 74 545 121 22 9 47 17 55 19
37 8 303 130 360 165 8 5 56 34 105 64 217 131 421 304 590 502 96 111 98 113
165 212 33 48 63 92 68 97 39 49 176 319 219 435 67 175 126 397 148 553 3 20
7 52 10 70 22 158 22 489 0 617 -2 14 -7 48 -10 75 -11 88 -46 247 -81 362
-200 663 -665 1222 -1280 1539 -101 52 -272 129 -309 138 -5 1 -55 17 -111 35
-55 17 -109 33 -120 35 -10 2 -48 11 -84 19 -36 8 -81 18 -100 21 -19 3 -51 8
-70 11 -87 14 -182 22 -265 24 -49 2 -116 3 -148 4 -32 1 -59 1 -60 1z"/>
</g>
</svg>
